<svg width="20" height="20" viewBox="0 0 20 20" fill="none" xmlns="http://www.w3.org/2000/svg">
<path d="M6.75 8C6.75 8.69036 6.19036 9.25 5.5 9.25C4.80964 9.25 4.25 8.69036 4.25 8C4.25 7.30964 4.80964 6.75 5.5 6.75C6.19036 6.75 6.75 7.30964 6.75 8Z" fill="#7B756B"/>
<path d="M10 9.25C10.6904 9.25 11.25 8.69036 11.25 8C11.25 7.30964 10.6904 6.75 10 6.75C9.30964 6.75 8.75 7.30964 8.75 8C8.75 8.69036 9.30964 9.25 10 9.25Z" fill="#7B756B"/>
<path d="M15.75 8C15.75 8.69036 15.1904 9.25 14.5 9.25C13.8096 9.25 13.25 8.69036 13.25 8C13.25 7.30964 13.8096 6.75 14.5 6.75C15.1904 6.75 15.75 7.30964 15.75 8Z" fill="#7B756B"/>
<path fill-rule="evenodd" clip-rule="evenodd" d="M0 3C0 1.34315 1.34315 0 3 0H17C18.6569 0 20 1.34315 20 3V13C20 14.6569 18.6569 16 17 16H4L0 20V3ZM3 2C2.44772 2 2 2.44772 2 3V15.2L3.2 14H17C17.5523 14 18 13.5523 18 13V3C18 2.44772 17.5523 2 17 2H3Z" fill="#7B756B"/>
</svg>
