<svg width="20" height="20" viewBox="0 0 20 20" fill="none" xmlns="http://www.w3.org/2000/svg">
<path d="M10 0C8.0222 0 6.08881 0.586489 4.44432 1.6853C2.79983 2.78412 1.51809 4.3459 0.761212 6.17316C0.00433564 8.00042 -0.193701 10.0111 0.192151 11.9509C0.578003 13.8907 1.53041 15.6726 2.92894 17.0711C4.32746 18.4696 6.10927 19.422 8.04908 19.8079C9.98889 20.1937 11.9996 19.9957 13.8269 19.2388C15.6541 18.4819 17.2159 17.2002 18.3147 15.5557C19.4135 13.9112 20 11.9778 20 10C20 7.34784 18.9464 4.80429 17.0711 2.92892C15.1957 1.05356 12.6522 0 10 0V0ZM14.73 7L9.72999 14C9.656 14.1092 9.55814 14.2002 9.4438 14.2661C9.32946 14.3319 9.20164 14.3709 9.07002 14.38H9.00001C8.88147 14.381 8.7639 14.3585 8.65407 14.3138C8.54423 14.2692 8.44429 14.2033 8.36 14.12L5.36 11.12C5.21824 10.9452 5.14626 10.7242 5.15794 10.4995C5.16962 10.2748 5.26415 10.0623 5.42326 9.90323C5.58237 9.74412 5.79477 9.64962 6.01948 9.63794C6.24419 9.62626 6.46528 9.69824 6.64003 9.84L8.88002 12.09L13.27 5.95999C13.4185 5.81127 13.6143 5.7192 13.8235 5.69971C14.0327 5.68022 14.2422 5.73456 14.4155 5.8533C14.5889 5.97205 14.7153 6.14772 14.7727 6.34985C14.8301 6.55199 14.815 6.76783 14.73 6.95999V7Z" fill="#5F0080"/>
</svg>
