<svg width="20" height="20" viewBox="0 0 20 20" fill="none" xmlns="http://www.w3.org/2000/svg">
<path d="M14.58 5.69C14.794 5.84446 14.9382 6.07724 14.9813 6.33762C15.0244 6.59799 14.9628 6.86483 14.81 7.07999L9.81 14.08C9.72619 14.1989 9.61748 14.2981 9.4914 14.3706C9.36532 14.4431 9.22492 14.4873 9.08002 14.5H9C8.8684 14.5008 8.73793 14.4755 8.61609 14.4258C8.49426 14.376 8.38342 14.3027 8.28998 14.21L5.28998 11.21C5.10168 11.0217 4.99591 10.7663 4.99591 10.5C4.99591 10.2337 5.10168 9.97831 5.28998 9.79001C5.47829 9.6017 5.7337 9.49591 6 9.49591C6.26631 9.49591 6.52172 9.6017 6.71003 9.79001L8.87 11.96L13.19 5.95999C13.2634 5.85086 13.3576 5.75731 13.4673 5.68466C13.5769 5.61201 13.6999 5.5617 13.829 5.53662C13.9581 5.51154 14.0909 5.51216 14.2198 5.53848C14.3487 5.5648 14.4711 5.6163 14.58 5.69ZM20 10C20 11.9778 19.4135 13.9112 18.3147 15.5557C17.2159 17.2002 15.6541 18.4819 13.8268 19.2388C11.9996 19.9957 9.98889 20.1937 8.04908 19.8079C6.10927 19.422 4.32748 18.4696 2.92896 17.0711C1.53043 15.6726 0.577995 13.8907 0.192143 11.9509C-0.193709 10.0111 0.00435829 8.00042 0.761235 6.17316C1.51811 4.3459 2.79979 2.78412 4.44428 1.6853C6.08877 0.586489 8.02219 0 10 0C11.3132 0 12.6136 0.258653 13.8268 0.7612C15.0401 1.26375 16.1425 2.00034 17.071 2.92892C17.9996 3.85751 18.7362 4.9599 19.2388 6.17316C19.7413 7.38641 20 8.68678 20 10V10ZM18 10C18 8.41775 17.5308 6.87104 16.6517 5.55545C15.7727 4.23986 14.5233 3.21448 13.0615 2.60898C11.5997 2.00348 9.99112 1.84504 8.43927 2.15372C6.88743 2.4624 5.46196 3.22432 4.34314 4.34314C3.22432 5.46196 2.46243 6.88742 2.15375 8.43927C1.84507 9.99112 2.00345 11.5997 2.60895 13.0615C3.21445 14.5233 4.23983 15.7727 5.55542 16.6518C6.87102 17.5308 8.41775 18 10 18C12.1217 18 14.1566 17.1572 15.6569 15.6569C17.1572 14.1566 18 12.1217 18 10Z" fill="#7B756B"/>
</svg>
