<svg width="13" height="13" viewBox="0 0 13 13" fill="none" xmlns="http://www.w3.org/2000/svg">
<path d="M7.9 6.5C7.9 6.5 11.5 2.9 12.7 1.7C13.1 1.3 13.1 0.7 12.7 0.3C12.3 -0.1 11.7 -0.1 11.3 0.3C10.1 1.5 6.5 5.1 6.5 5.1C6.5 5.1 2.9 1.5 1.7 0.3C1.3 -0.1 0.7 -0.1 0.3 0.3C-0.1 0.7 -0.1 1.3 0.3 1.7C1.5 2.9 5.1 6.5 5.1 6.5C5.1 6.5 1.5 10.1 0.3 11.3C-0.1 11.7 -0.1 12.3 0.3 12.7C0.7 13.1 1.3 13.1 1.7 12.7C2.9 11.5 6.5 7.9 6.5 7.9C6.5 7.9 10.1 11.5 11.3 12.7C11.7 13.1 12.3 13.1 12.7 12.7C13.1 12.3 13.1 11.7 12.7 11.3C11.5 10.1 7.9 6.5 7.9 6.5Z" fill="#7B756B"/>
</svg>
