<svg width="20" height="18" viewBox="0 0 20 18" fill="none" xmlns="http://www.w3.org/2000/svg">
<path d="M20 15C20 15.6 19.6 16 19 16H11V14H19C19.6 14 20 14.4 20 15ZM9.5 8H1C0.4 8 0 8.4 0 9C0 9.6 0.4 10 1 10H9.5V8ZM19 2H11V4H19C19.6 4 20 3.6 20 3C20 2.4 19.6 2 19 2ZM9.5 3C9.5 4.7 8.2 6 6.5 6C5.2 6 4.1 5.2 3.7 4H1C0.4 4 0 3.6 0 3C0 2.4 0.4 2 1 2H3.7C4.1 0.8 5.2 0 6.5 0C8.2 0 9.5 1.3 9.5 3ZM7.5 3C7.5 2.4 7.1 2 6.5 2C5.9 2 5.5 2.4 5.5 3C5.5 3.6 5.9 4 6.5 4C7.1 4 7.5 3.6 7.5 3ZM20 9C20 9.6 19.6 10 19 10H16.8C16.4 11.2 15.3 12 14 12C12.3 12 11 10.7 11 9C11 7.3 12.3 6 14 6C15.3 6 16.4 6.8 16.8 8H19C19.6 8 20 8.4 20 9ZM15 9C15 8.4 14.6 8 14 8C13.4 8 13 8.4 13 9C13 9.6 13.4 10 14 10C14.6 10 15 9.6 15 9ZM9.5 15C9.5 16.7 8.2 18 6.5 18C5.2 18 4.1 17.2 3.7 16H1C0.4 16 0 15.6 0 15C0 14.4 0.4 14 1 14H3.7C4.1 12.8 5.2 12 6.5 12C8.2 12 9.5 13.3 9.5 15ZM7.5 15C7.5 14.4 7.1 14 6.5 14C5.9 14 5.5 14.4 5.5 15C5.5 15.6 5.9 16 6.5 16C7.1 16 7.5 15.6 7.5 15Z" fill="#7B756B"/>
</svg>
