<svg width="21" height="19" viewBox="0 0 21 19" fill="white" xmlns="http://www.w3.org/2000/svg">
<path d="M20.5945 8.2C10.4749 0 10.5 0 10.5 0C10.5 0 10.4749 0 0.355327 8.2C-0.0454481 8.5 -0.145642 9.2 0.255133 9.6C0.555715 10 1.25707 10.1 1.65785 9.7C2.4594 9.1 2.5 9.1 2.5 9.1C2.5 9.1 2.5 14.3 2.5 16C2.5 17.7 3.79671 19 5.5 19C8.00485 19 12.9952 19 15.5 19C17.2033 19 18.5 17.7 18.5 16C18.5 14.3 18.5 9.1 18.5 9.1C18.5 9.1 18.4904 9.1 19.3922 9.8C19.7929 10.2 20.4943 10.1 20.7949 9.7C21.0954 9.2 21.0954 8.6 20.5945 8.2ZM16.5 16C16.5 16.6 16.1012 17 15.5 17C14.7986 17 12.5 17 12.5 17V11H8.5V17C8.5 17 6.30155 17 5.5 17C4.89884 17 4.5 16.6 4.5 16C4.5 13.9 4.5 7.4 4.5 7.4L10.5 2.5L16.5 7.4C16.5 7.4 16.5 13.9 16.5 16Z" fill="#7B756B"/>
</svg>
