<svg width="21" height="19" viewBox="0 0 21 19" fill="currentColor" xmlns="http://www.w3.org/2000/svg">
<path d="M20.6864 8.2C10.4931 0 10.4931 0 10.4931 0C10.4931 0 10.4931 0 0.299802 8.2C-0.0999341 8.5 -0.0999341 9.2 0.299802 9.6C0.599605 9.9 1.19921 10 1.59895 9.7C2.49835 9.1 2.49835 9.1 2.49835 9.1C2.49835 9.1 2.49835 14.3 2.49835 16C2.49835 17.7 3.7975 19 5.49638 19C7.99473 19 12.9914 19 15.4898 19C17.1887 19 18.4878 17.7 18.4878 16C18.4878 14.3 18.4878 9.1 18.4878 9.1C18.4878 9.1 18.4878 9.1 19.3872 9.8C19.787 10.1 20.4865 10 20.7863 9.5C21.0861 9.1 21.0861 8.5 20.6864 8.2ZM12.4918 17H8.4944V11H12.4918V17Z"/>
</svg>
