<svg width="18" height="22" viewBox="0 0 18 22" fill="none" xmlns="http://www.w3.org/2000/svg">
<path d="M12.25 9C12.25 9.64279 12.0594 10.2711 11.7023 10.8056C11.3452 11.3401 10.8376 11.7566 10.2437 12.0026C9.64986 12.2486 8.9964 12.313 8.36596 12.1876C7.73552 12.0622 7.15642 11.7526 6.7019 11.2981C6.24738 10.8436 5.93785 10.2645 5.81245 9.63403C5.68704 9.00359 5.75141 8.35015 5.99739 7.75629C6.24338 7.16243 6.65994 6.65484 7.1944 6.29773C7.72886 5.94061 8.35721 5.75 9 5.75C9.86114 5.75264 10.6863 6.09591 11.2952 6.70483C11.9041 7.31376 12.2474 8.13886 12.25 9V9ZM18 9C18 17 9 22 9 22C9 22 0 17 0 9C0 6.61305 0.948212 4.32387 2.63604 2.63605C4.32387 0.94822 6.61305 0 9 0C11.3869 0 13.6761 0.94822 15.364 2.63605C17.0518 4.32387 18 6.61305 18 9V9ZM16 9C16 7.14348 15.2625 5.36299 13.9497 4.05023C12.637 2.73748 10.8565 2 9 2C7.14348 2 5.36301 2.73748 4.05025 4.05023C2.7375 5.36299 2 7.14348 2 9C2 14.27 6.87 18.18 9 19.63C11.13 18.18 16 14.27 16 9Z" fill="currentColor"/>
</svg>
