<svg width="18" height="20" viewBox="0 0 18 20" fill="none" xmlns="http://www.w3.org/2000/svg">
<path d="M17 9C17.5331 9 17.9542 9.41654 17.9966 9.9197L18 10V16.7831C18 18.5184 16.5739 19.9328 14.7894 19.9977L14.6613 20H3.33871C1.53767 20 0.0697141 18.6259 0.00241101 16.9065L0 16.7831L1.57356e-05 10.0039C1.57356e-05 9.46319 0.438792 9 0.999984 9C1.53312 9 1.95424 9.41654 1.99663 9.9197L2 10V16.7831C2 17.4493 2.56945 17.9528 3.24926 17.9971L3.33871 18H14.6613C15.3528 18 15.951 17.5243 15.997 16.8693L16 16.7831V10C16 9.45928 16.4388 9 17 9Z" fill="#7B756B"/>
<path d="M10 2.0001V12.0001C10 12.5138 9.60555 12.956 9.08334 12.9969L9 13.0001C8.46687 13.0001 8.04576 12.5836 8.00337 12.0804L8 12.0001V2.0001H10Z" fill="#7B756B"/>
<path d="M12.8 6.2C11.9 5.3 9 2.4 9 2.4C9 2.4 6.2 5.3 5.2 6.2C4.8 6.6 4.2 6.6 3.8 6.2C3.4 5.8 3.4 5.2 3.8 4.8C4.9 3.7 7.2 1.4 8.3 0.3C8.7 -0.1 9.3 -0.1 9.7 0.3C10.8 1.4 13.1 3.7 14.2 4.8C14.6 5.2 14.6 5.8 14.2 6.2C13.8 6.6 13.2 6.6 12.8 6.2Z" fill="#7B756B"/>
</svg>
